# xmcd CD database file
#
# Track frame offsets:
#	150
#	10726
#	36850
#	61900
#	67132
#	85323
#	105571
#	122459
#	141181
#	153564
#	177273
#	213893
#	231625
#	234567
#	250271
#	255132
#
# Disc length: 3776 seconds
#
# Revision: 2
# Processed by: cddbd v1.5.2PL0 Copyright (c) Steve Scherf et al.
# Submitted via: CDex 1.51
#
DISCID=d60ebe10
DTITLE=Manu Codjia - Brother Monkey
DYEAR=2009
DGENRE=Jazz
TTITLE0=From The Outset - Part I
TTITLE1=From The Outset - Part II
TTITLE2=Brother Monkey
TTITLE3=Jungle Jig - Part I
TTITLE4=Jungle Jig - Part II
TTITLE5=Flying Fishes
TTITLE6=Sea Horse - Part I
TTITLE7=Sea Horse - Part II
TTITLE8=Luna
TTITLE9=Bug Steps
TTITLE10=Processing Song
TTITLE11=Raising
TTITLE12=Some More Lubyes - Part I
TTITLE13=Some More Lubyes - Part II
TTITLE14=Le Manege - Part I
TTITLE15=Le Manege - Part II
EXTD=YEAR: 2009
EXTT0=
EXTT1=
EXTT2=
EXTT3=
EXTT4=
EXTT5=
EXTT6=
EXTT7=
EXTT8=
EXTT9=
EXTT10=
EXTT11=
EXTT12=
EXTT13=
EXTT14=
EXTT15=
PLAYORDER=
